<svg xmlns="http://www.w3.org/2000/svg" viewBox="0 0 180.35 180.35" height="160px">
  <defs>
    <style>.a{fill:#fff200;}.b{fill:#46536a;}</style>
  </defs>
  <title>Asset 2</title>
  <circle class="a" cx="90.18" cy="90.18" r="75.18"/>
  <path class="b" d="M87.42,90.3c5.8-7.64,12.28-15.38,17.15-23.64a7.79,7.79,0,0,0,1.32-5.58c-.09-2.39,4-7,6.88-5.69s1.76,3.84.86,5.9c-.54,1.23-.78,3.26-1.95,4-.59.36-2.39.21-3.16.53a6.61,6.61,0,0,0-2.79,2.27c-6,7.67-9.49,17.27-14.86,25.36C90,94.77,92.14,96,93,94.69c3.52-5.3,6.23-11.07,9.49-16.53,1.41-2.36,2.79-5.53,4.57-7.6s2.47-1.89,5-2.63c.34-.1.71.17,1.06-.06a3.74,3.74,0,0,0,1.32-1.63,40.06,40.06,0,0,0,3-7.14c1-3.08-.93-4.58-3.46-5.86s-4.18-1.56-6.32.41c-2.31,2.13-4.84,4.43-4.8,7.59,0,.47.76.72.76,1.15,0,1.39-1.36,3.22-2,4.35a78.1,78.1,0,0,1-5.25,7.2C92.63,78.93,89,84.06,85.26,89c-1,1.28,1.2,2.53,2.16,1.26Z"/>
  <path class="b" d="M90.34,80.5c-2.54-3.33-5.54-4.89-9.85-3.47-4.73,1.56-6.34,5.26-7.08,9.77-.42,2.56-1,5.13-3.19,6.88a20.78,20.78,0,0,1-4,2,21.44,21.44,0,0,0-6.91,5,14.61,14.61,0,0,0-3.42,12.68c2.27,11.25,14.79,18.21,25.48,17C91.54,129.18,98,119.09,97,109.28c-.19-1.86-1-3.63-.21-5.42s2.73-2.36,4.25-3.51A6.65,6.65,0,0,0,104,95.75c.67-5.34-3.43-8-7.5-9.84-1.45-.67-2.72,1.48-1.26,2.16,1.91.89,4.92,1.59,5.5,3.95l-1.34,6.5L98,99.37c-.47.42-1.15.66-1.65,1.07-2.42,2-2.51,4-2.1,7,.86,6.24-.25,12.58-5.21,17s-13.51,4.83-19.32,1.81c-5.08-2.64-10.64-8.2-11.39-14-.94-7.29,3.86-11.7,9.85-14.55C71.47,96,75,94.26,75.78,90.33c.42-2.14,0-4.25.74-6.35,1.83-4.92,8.37-6.55,11.67-2.22,1,1.26,3.13,0,2.16-1.26Z"/>
  <path class="b" d="M84.72,92.36a7.94,7.94,0,0,0-9.16,6.4,7,7,0,0,0,6.75,7.92c3.86-.08,8.06-1.94,10.09-5.34s2-8-2.56-9c-1.57-.33-2.24,2.08-.66,2.41,3.29.7,1.9,4.54.33,6.29a9.7,9.7,0,0,1-4.84,2.77c-2.22.58-5.23.59-6.12-2.11-1.19-3.57,1.58-7.61,5.51-7,1.57.26,2.25-2.15.66-2.41Z"/>
  <path class="b" d="M70.35,114.19c2.25-3.26,4.21-6.63,6.25-10s4.49-6.35,6.43-9.73a1.25,1.25,0,0,0-2.16-1.26c-1.94,3.38-4.42,6.4-6.43,9.73s-4,6.75-6.25,10c-.91,1.33,1.25,2.58,2.16,1.26Z"/>
  <path class="b" d="M73.28,118.09c3.48-7.44,7.88-16.35,13.7-22.18a1.25,1.25,0,0,0-1.77-1.77c-6,6-10.49,15-14.09,22.68-.68,1.45,1.48,2.72,2.16,1.26Z"/>
  <path class="b" d="M75.47,120C80.7,112.16,85,103.89,90.88,96.4c1-1.25-.78-3-1.77-1.77-6,7.66-10.45,16.08-15.8,24.15-.89,1.34,1.27,2.6,2.16,1.26Z"/>
</svg>
