<svg xmlns="http://www.w3.org/2000/svg" viewBox="0 0 180.35 180.35" height="160px">
  <defs>
    <style>.a{fill:#fff200;}.b{fill:#46536a;}</style>
  </defs>
  <title>Asset 3</title>
  <circle class="a" cx="90.18" cy="90.18" r="75.18"/>
  <path class="b" d="M79.69,61.31c-3.65-2-6-2.44-9.77-.42a16.61,16.61,0,0,0-7.44,7.3C58.84,75.65,62,83.53,70.68,84.7c7,.94,17.55-4.43,18.33-12.18.87-8.65-7.81-13-15.09-10.9A1.25,1.25,0,0,0,74.59,64c3.15-.92,6.28-1.18,9,1.23s3.93,6.54,1.89,9.91c-2.81,4.62-9.09,7.74-14.37,7-15.28-2.17-4.19-25,7.37-18.69,1.41.77,2.68-1.39,1.26-2.16Z"/>
  <path class="b" d="M64.33,77.11C73,80.39,78.42,71.08,83,65.45c1-1.24-.75-3-1.77-1.77-3.9,4.79-8.64,13.89-16.23,11-1.51-.57-2.16,1.85-.66,2.41Z"/>
  <path class="b" d="M73.61,87c4.31,8.67,8.61,17.49,13.52,25.84,1.65,2.8,5.91,12.69,10.72,10.07,6.11-3.33,1.47-14.93-.18-19.26C94.58,95.52,90,87.7,87.24,79.5c-.51-1.52-2.93-.87-2.41.66,1.72,5.09,4.64,10,6.74,15,1.4,3.31,2.75,6.63,4,10,1.16,3.08,4,9,2.36,12.12q.27,4.05-4.6.79l-.69-1.19A39.21,39.21,0,0,1,90.14,113c-1.61-2.6-3-5.33-4.44-8C82.36,98.57,79,92.2,75.77,85.75c-.72-1.44-2.87-.18-2.16,1.26Z"/>
  <path class="b" d="M65.76,70.87a28.63,28.63,0,0,1,2.6,5.87c.44,1.6,1.23,3.63,1.16,5.28s2.43,1.6,2.5,0c.09-1.94-.73-4.09-1.25-5.94a31.68,31.68,0,0,0-2.85-6.46c-.76-1.42-2.92-.16-2.16,1.26Z"/>
  <path class="b" d="M69.56,66.21c1.83,5,4.65,10.37,4.75,15.81a1.25,1.25,0,0,0,2.5,0c-.11-5.76-2.91-11.14-4.84-16.47-.55-1.5-3-.85-2.41.66Z"/>
  <path class="b" d="M75.36,63.89c2.46,5.39,5.1,11.17,5.06,17.25a1.25,1.25,0,0,0,2.5,0c0-6.58-2.74-12.69-5.4-18.51-.67-1.46-2.82-.19-2.16,1.26Z"/>
  <path class="b" d="M100.09,122.48c2.07,5.27,5.22,6.16,9.51,2,6.32-6.09,10.88-20.29,21.9-16,1.5.59,2.15-1.83.66-2.41-5.3-2.07-10.37-.44-14.19,3.62a61.84,61.84,0,0,0-5,6.69c-1.52,2.13-7.94,11.78-10.45,5.39-.58-1.48-3-.84-2.41.66Z"/>
</svg>
