<svg xmlns="http://www.w3.org/2000/svg" viewBox="0 0 180.35 180.35">
  <defs>
    <style>.a{fill:#fff200;}.b{fill:#46536a;}</style>
  </defs>
  <title>Asset 1</title>
  <circle class="a" cx="90.18" cy="90.18" r="90.18"/>
  <path class="b" d="M78.05,58.51a170.27,170.27,0,0,0,9.06,19c2.1,4,4.4,7.92,5.21,12.4.74,4.09.56,8.35.9,12.49.54,6.45,1.24,13.94,4.37,19.7,2,3.69,6.94,9.75,11.79,8.26s5.67-8.79,5.81-12.95c.25-7.35-2.21-15.11-4.63-21.94-2.67-7.54-7.46-13.64-8.73-21.66-.66-4.16-1.34-8.25-2.16-12.39-.65-3.31-.73-6.38-2.94-9C95.72,51.19,94,53,95,54.2c2.23,2.69,2.3,7.87,3,11.2s1,6.67,1.61,10c1.05,6.26,4,10.25,6.7,15.87a66.42,66.42,0,0,1,5.43,18.1c.5,3.19,1.17,6.23.88,9.48a21.28,21.28,0,0,1-1,5.26q-.66,4.25-4.2,2.93a4.22,4.22,0,0,1-4.16-1.51c-9.67-8.59-6.32-25-8.5-36.25-1-5.36-4-9.7-6.36-14.53-2.68-5.51-5.77-11.19-7.92-16.91-.56-1.49-3-.85-2.41.66Z"/>
  <path class="b" d="M79.56,63c-.61,3.16-.93,6.44-2,9.5C77,74.31,75.91,76.8,74,77.69c-1.19.56-2.79.12-4,.38-2.85.59-4.62,3-5.11,5.92-.69,4.14,2.9,6.8,4.48,10.3,1.69,3.74-.5,6.65-1.71,10.08a41.84,41.84,0,0,0-2,8.42c-.31,2.43-.13,6.12,3,6.57,4,.57,7.69-4.93,9.71-7.55a90.29,90.29,0,0,0,7.91-12.38c2.77-5.15,6.1-11.84,6-17.75a1.25,1.25,0,0,0-2.5,0c.12,5.68-3.34,12.33-6,17.19A108.94,108.94,0,0,1,77,109.5a33,33,0,0,1-4.22,5.07l-2.35,1.73-2.22-3.63a9.22,9.22,0,0,1,.61-3c.93-3.85,3.56-7.46,4-11.34.34-3-1.25-5.39-2.74-7.87-1.3-2.15-3.25-4.24-2.37-7.11.76-2.45,3-2.48,5.1-2.93,7.62-1.63,7.93-10.21,9.18-16.74.3-1.57-2.11-2.25-2.41-.66Z"/>
  <path class="b" d="M74.32,81c2,3.94,3.74,7.78,4.3,12.19.46,3.65,1.74,8.41.94,12-.35,1.57,2.06,2.24,2.41.66.88-4-.26-8.62-.77-12.58-.63-4.91-2.49-9.16-4.72-13.55-.73-1.43-2.89-.17-2.16,1.26Z"/>
  <path class="b" d="M94.49,99.78c1.57,4.83,5.16,19.44,13,15.86,6.15-2.8,5.77-14,3-18.83a1.25,1.25,0,0,0-2.16,1.26,13.93,13.93,0,0,1,1.34,8.51,13.66,13.66,0,0,1-.71,3.2c-.76,2.1-.72,2.48-3,3-2.68.61-3.58-.68-5-2.91A23.21,23.21,0,0,1,99.19,106c-.9-2.27-1.54-4.61-2.29-6.93-.49-1.52-2.91-.87-2.41.66Z"/>
  <path class="b" d="M95.53,98.51a16.14,16.14,0,0,1,8.52,2,59.54,59.54,0,0,1,6.28,3.52c1.31.94,2.56-1.23,1.26-2.16a46.67,46.67,0,0,0-8-4.44,18.36,18.36,0,0,0-8-1.44c-1.6.06-1.61,2.56,0,2.5Z"/>
  <path class="b" d="M97.67,107.57a41.75,41.75,0,0,0,7.79-5.57,34.28,34.28,0,0,0,2.74-3c.47-.59,1.12-2.23,1.72-2.67,1.29-.94,0-3.11-1.26-2.16a6.57,6.57,0,0,0-1.6,2.07,22.64,22.64,0,0,1-2.6,3.19,37.45,37.45,0,0,1-8,6c-1.37.84-.12,3,1.26,2.16Z"/>
  <path class="b" d="M78.25,86.73a20.3,20.3,0,0,1,5.63,2.06,20.42,20.42,0,0,1,4.56,4.16c1.11,1.17,2.88-.6,1.77-1.77-1.6-1.69-3-3.41-5.06-4.55a30,30,0,0,0-3-1.51,20.86,20.86,0,0,0-3.25-.8c-1.56-.38-2.23,2-.66,2.41Z"/>
  <path class="b" d="M80.6,97.34c2.28,0,4.47-1,6.54-1.89,1.46-.61.82-3-.66-2.41a23.44,23.44,0,0,1-2.69,1,11.44,11.44,0,0,1-3.18.82,1.25,1.25,0,0,0,0,2.5Z"/>
</svg>