<svg xmlns="http://www.w3.org/2000/svg" viewBox="0 0 1013.34 523.2">
  <defs>
    <style>.a{fill:#f90604;}.b{fill:#fbda0e;}.c{fill:#f7980a;}.d{fill:#fdfcfc;}.e{fill:#3c0604;}</style>
  </defs>
  <title>Bezanka Logo</title>
  <path class="a" d="M217.94,205.33c-3.42,1.19-4.38,3.46-4.38,7.15A210.42,210.42,0,0,0,225,281c4.89,14.19,11.83,27.65,21.83,39.23,6.38,7.39,14,13.44,20.93,20.2,7.47,7.28,16.73,11.59,25.73,15.43,12.54,5.34,26.17,8.42,40.16,7.42,7.55-.54,11.81,1.28,12.12,10.16,1.14,32.13,5.61,64.08,5.85,96.28.18,23.68-19.09,45-42.42,48.69-13.68,2.19-27.05,6.82-41.11,3.79-20.62-4.45-32.69-18.12-39.3-37.36-2.49-7.26-4-15-7.37-21.78-2.25-4.52-6.71-1-9.73.68-7.15,4.09-13.72,9.38-21.19,12.72-20.37,9.12-41.52,13.11-62.75,3.21-18.43-8.59-29-24.14-35.09-43.17-4.8-15-2.33-29,3.85-42.93,2.66-6,2.35-9.89-6.41-9.51-11.41.48-22.93,2.23-34.31-1.46-13.86-4.49-25.75-11.4-35.46-22.66C6.46,343.84,3.5,324.56,4.4,304.85c.51-11.2,8.5-20.32,16.87-28.08,7.18-6.65,15.57-11.48,24.09-16.09,4.48-2.42,4.84-4.74.2-7.33-7.71-4.3-16.72-7.26-22.83-13.2C8.84,226.61-1.72,210.76.23,189.77,1.84,172.44,7.35,156.38,21,145.21c10.69-8.77,23.62-14.1,37.79-16.09a216,216,0,0,1,32.75-1.79c1.73,0,4,.84,4.86-1.39a7,7,0,0,0-.63-6.6c-5.91-10-13-19.65-13.18-31.88-.15-14,.85-27.87,10.66-39.28,18-20.91,49.63-28.16,76.33-19.56,14.77,4.76,26.8,12.55,38.11,22.58,3.07,2.73,8.29,2.48,9-3.2,2.29-18.68,13.09-31.68,28-41.33,4.94-3.19,11.48-4.54,22-6.41,7.63-.58,10,0,15,0,8.87,1.64,17.73,3.36,26,7.06,14.63,6.52,24.09,18,30.07,32.46,2.95,7.13,6.31,13.89,6.11,22.31-.5,20.31,0,40.69.38,61,.44,21.53-.86,43.1,1.15,64.64.52,5.54,1.29,11.95-3,17-32.92-.08-65.85-.21-98.78-.18C235.09,204.54,226.51,205.05,217.94,205.33Zm-161,24.79c.89,2.39,2.89,2.17,4.84,2,1.16.62,2.25,1.6,3.48,1.82,19.58,3.52,39,8.42,59.07,8.28,18.81-.13,37.61,1.4,56.42,0,17.76,1.3,17.77,1.3,17-16a17.09,17.09,0,0,1-.19-4c2.54-12.62-4.14-21.09-12.76-28.72-11.27-10-23.18-19-36.92-25.36h0c-.2-.45-.27-1.15-.61-1.31-28-13.47-57-23.24-88.47-16-9.39,2.16-18.62,7.31-23,17.44l0,0c-.46.16-1.15.17-1.35.49-10.93,17.56-11,36.58,4.74,51.25,4.79,4.46,10.25,9.47,17.69,10.06ZM170.75,50.2a32,32,0,0,0-23.09-5.83c-6.38-.51-12.26,1.23-17.93,3.94a12.2,12.2,0,0,0-3.29.89c-17.16,10.49-23.18,27-15.43,48.31,6,16.61,16.93,30,29.15,42.37,4.47,4.53,8.31,9.86,14.5,12.41h0c13.23,13.17,27.63,24.69,45.07,31.9h0a13.27,13.27,0,0,0,10,4.08c12.1.09,24.13,0,36.21-1.72,6.44-.94,6.59-3.33,4.71-8-3.11-7.82-6.15-15.66-9.31-23.46a255.08,255.08,0,0,0-19.52-38.89l0,0a17.57,17.57,0,0,0-.72-2.84c-7.15-16.37-17.13-31-28.32-44.76-6.06-7.47-13.09-14.12-22-18.33Zm-1,208.1-1,.08h-1.92c-3.48-.09-7-.42-10.43-.21-10.62.65-15.88.43-31.6,4.08h0c-21.74.3-42.37,5.87-61.71,15.19-28.42,13.69-35.26,23.17-33,53.27.74,9.82,15,27.65,23.61,29.38,12.69,2.55,25.2,2.17,38.16.64,20-2.35,38-10.27,56-17.66,23.45-9.62,45.81-21.88,68.08-34.12,3.18-1.75,4.22-3.14,2.7-6.46-6.44-14.07-13.29-28-17.89-42.82-.38-1.23-1.93-3.06-2.85-3-9.36.46-18.9-1.94-28.06,1.62Zm148,234c11.38-7.81,13.78-19.91,13.81-32.18.06-25.4-1-50.8-1.44-76.21-.1-6.12-3.48-8-8.62-7.28-7.06.93-13.88-.08-20.63-1.73-18.76-4.56-20.61-3.9-27.4,7-15.83,25.43-28.67,51.74-25.46,82.9,1.49,14.42,5.43,27.58,19.88,35s40.66,3.78,49.86-7.48ZM160,464.1c20.71-1.66,36.15-13.59,50.7-26.73,20.71-18.72,37.07-41.3,54-63.31,2.46-3.21,9.57-8.44,2.91-12.87-13.95-9.27-22.41-23.22-32.7-35.58-2.88-3.46-5.51-3.78-8.89-2.83a222.39,222.39,0,0,0-39.82,16c-21.61,10.86-40.93,24.9-57.24,43-7.71,8.54-13.87,18.22-15.73,29.26C108.7,437.63,133.74,463.28,160,464.1ZM329.2,80.84c-.74,0-.86-.19-1.6-.19,0-3.49.35-7-.06-10.47-1.44-11.9-4-23.27-12.45-32.73-11.56-12.94-26.16-15.13-42.15-13.25-21.25,2.49-36,15.67-34.95,38a275.07,275.07,0,0,0,5.16,44.2c5.54,26.38,16.27,51.06,22.76,77.05.51,2,1.9,2.81,4.07,2.84,18.51.24,37,.63,55.54.83,3.61,0,5.3-2,5.06-5.8-.41-6.57-.71-13.16-.73-19.74C329.78,134.59,329.2,107.81,329.2,80.84Z"/>
  <path class="a" d="M771.14,208.91q-39.88,0-79.76,0c-3,0-5.94-.64-8.9-.57-4.14.1-5.67-1.94-5.63-5.76q.57-56.83,1.15-113.65c.1-9.08-.46-18.14.62-27.24,2-16.49,9.6-29.9,21.92-40.45,19-16.29,42-18.55,64.91-13.33,19,4.32,31,18.33,36.24,37.41a62.66,62.66,0,0,1,1.89,6.56c.43,2.68-.36,6.09,2.73,7.28s5.55-.86,7.92-3c18.87-16.75,40.64-26.49,66.18-23.66,20.86,2.31,40.16,10,48.83,30.8,8.59,20.57,6.11,41.29-7.33,59.81-2.11,2.9-3.06,5.8-1.77,8.71s4.48,1.41,6.83,1.46c19.38.38,38.63,1.4,56.23,10.91,21,11.33,33.7,39.45,29.25,63-3,15.69-11.83,26.48-24.61,35.37a238.52,238.52,0,0,1-20.83,13c-2.22,1.23-1.35,3.2-1.42,4.83a6.19,6.19,0,0,0,3.42,6c13.53,8,27.15,16.22,34.77,30.54,5.85,11,6.57,23.31,3.74,35.46-2.88,12.37-7.34,24-16.63,33.36-12.29,12.32-27.41,18.48-44.21,21.56-7.64,1.4-15.12-.65-22.71-.16-4,.26-4.68,1.53-3.89,5.19,3.08,14.29,7,28.57,3.61,43.38-2.58,11.29-9.43,20.06-16.61,28.87-20.86,25.6-63.08,22.79-87.67,8.33-1-.56-1.53-1.74-2.44-2.42-16-11.93-18.84-10.82-25.23,10.07-4.66,15.25-12.44,28-27,35.88-13,7.05-26.92,7.23-40.65,4.16-9.38-2.1-18.93-3.39-27.93-8.26C681,504,672,492,671.09,475.44c-1.64-28.37,2.82-56.57,4.54-84.85.39-6.46.76-12.93,1.35-19.38.41-4.54,2.69-7.25,7.72-6.94,23.55,1.45,44.92-4.89,64-18.66A114.89,114.89,0,0,0,777.12,316c14-20.94,22-44.13,25.89-68.73,1.7-10.61,1.88-21.48,2.49-32.25.23-4.1-1.63-6.17-6.38-6-9.31.4-18.66.12-28,.12ZM767.52,34.38c-12.9-6.32-26-7.37-40.27-4.57C712.68,32.66,700.43,49.75,698,60.09c-4.28,18.51-3.21,37.58-4,56.43-.9,22.59-1.16,45.2-1.75,67.79-.1,3.83,1.15,5.79,5.4,5.78,17.3-.07,34.61,0,51.91.23,4.24.06,5.78-2,6.84-5.59,3.16-10.74,6.18-21.53,9.89-32.08,9.27-26.35,17.74-52.85,17.26-81.21-.15-9.08,1.43-18.7-5.74-26.32C777.57,41.26,769.39,35.29,767.52,34.38Zm52.09,154.7c16.22-7,29.57-18.39,43.22-29.2,16.86-13.35,30.84-29.22,41-48.34,10.4-19.65,11-37.93-8.53-53.43-13.89-11-37.05-10.14-50.9,1a143,143,0,0,0-33.73,39.53c-16,27.31-30,55.51-40.23,85.53-1,2.85-.43,5.09,2.77,5.71a164.62,164.62,0,0,0,34.63,2.72c3.57-.07,8.24.7,10.84-3.5l.47,0Zm19.48,71.18c-3.66,0-7.4.47-11-.1-6.26-1-9.85,1.5-11.34,7.36-3.11,12.27-9.12,23.3-14.88,34.4-2.63,5.07-1.52,7.88,3.5,10.53,25.19,13.3,50.19,27,76.78,37.37,12.68,4.94,25.83,8.32,39.1,11.64,21.4,5.35,52.67,3.72,61.65-22.66,5.79-17,0-40.82-14.83-50.11-16.89-10.59-35.49-16.22-54.64-20.49C889,262.74,864,261.41,839.09,260.26Zm23,203.87c2,.25,4.75-.52,7.61-1.67,31.42-12.58,45.15-40.71,25.49-71A118.62,118.62,0,0,0,860.64,357c-20.13-13.19-40.92-25.37-64.75-31.46-6-1.53-8.8.25-11.64,4.2-8,11.11-15.6,22.53-27.08,30.53-5.6,3.9-6.45,7.82-1.29,13.09a100,100,0,0,1,11.42,14.35c13.21,19.7,27.85,38.2,45.72,53.87C826.79,453.63,842.05,463,862.13,464.14ZM821.51,234c1.75,4.1-3.94,12.15,5.48,12.13,41.54-.08,83.35,3.5,124.18-8,14.61-4.11,28-11.27,33.86-25.2,10.87-25.9-7-54.35-33.94-58.18-23.25-3.3-45.62,2.57-67.21,11-14.4,5.6-27.22,14.37-39.36,23.56-8.91,6.74-19.31,13.57-21.43,26.21C822.08,221.5,822,227.69,821.51,234ZM774.38,457.52c-1.37-10.33-1.67-20.94-4.36-30.91-4.8-17.81-15.9-32.8-24.38-49-1.66-3.16-4.61-4.13-8.43-3.76-13,1.28-25.69,5.58-39,4.46-3.32-.28-4.4,1.77-4.53,4.61-.33,7.12-.65,14.25-.91,21.38-.64,17.9-1.91,35.82-1.62,53.71.17,10.77,2.48,21.5,9.46,30.62,8.88,11.6,21.84,14.44,34.82,14.7,11.74.23,23.57-2.61,30.35-14.48C771.35,479.17,773.58,468.68,774.38,457.52Z"/>
  <path class="a" d="M281.5,223.33c14.44.71,32-.86,49.6,1.46,8.77,1.16,17.88-.27,26.84-.53,3.78-.11,4-2.71,3.81-5.52-1.31-18.13-.46-36.26-.42-54.4,0-20.18,5.22-39.3,13.8-57.22,7.62-15.91,34.57-20.82,50.52-13,21.09,10.38,27.11,28.66,29.91,49.13a363.55,363.55,0,0,1,.91,90.25c-2.14,19-7,37.81-16.14,54.58-15.78,28.83-40,47.93-72.81,53.75-21.28,3.78-42.26.77-63.28-5.14-21.61-6.07-36.42-20.36-49-36.87-9.27-12.15-14.3-27.08-16.7-42.73-1.43-9.3-2.52-18.63-3.88-27.93-.62-4.23.16-6.18,5.26-6C252.72,223.61,265.56,223.33,281.5,223.33Zm60,87c-8.74-1.42-20.08-1.68-29.9-8.23-11.3-7.53-23.05-14.49-29.58-27.2-5.57-10.84-11.36-21.53-10.82-34.4.12-2.79,0-6.73-5.28-6.66s-5.49,2.9-5.18,6.74c2.43,29.66,15.17,53.16,41.36,68.33,16.09,9.32,33.59,12.13,52.15,11.51,28.07-.94,50.26-11.12,64.3-36.44A149,149,0,0,0,434,240.46c.41-2,1.63-5.53-2.43-6.35-3.74-.75-6.54.19-7.54,4.28-.78,3.2-1.37,6.46-2.36,9.6-5,16-10.38,31.76-22.38,44.15C384,307.91,364.48,310.85,341.47,310.38Zm10.93-12.12,8.15-1.07c9.47-1.23,19.23-2,27-8.15,14.8-11.69,21.81-27.83,24.71-46,.32-2,2.2-5.45-2.58-6-4.23-.52-6.21.45-7.18,5-2.85,13.52-7.06,26.42-18.4,35.77-8.68,7.15-18.93,9.15-29.57,10.07-19,1.65-35.54-4.36-48.71-18.1-7.27-7.59-8.19-18.17-10.12-28-.69-3.54-2.55-4.32-5.5-4.1s-5.18,1.48-4.5,5c.58,3.07,1.42,6.09,2,9.17,2.3,13.12,7.54,25.31,18.49,32.71C319.16,293.37,334.13,298.25,352.41,298.26ZM307.32,242a33.8,33.8,0,0,0,4.86,16.37c8.26,13.5,21.36,16.7,36.05,18.22,22.56,2.33,42.7-14.85,42.12-37.21a3.08,3.08,0,0,0-1.74-3.14c-6.24-3.44-10.06-1.45-10.58,6-.67,9.44-4.69,17.86-13.43,20.64-21.95,7-39.32-2.78-48.32-21.91-1-2.15,0-5.51-4.34-4.7S306.93,239.83,307.32,242Zm97-115.74c-10.83-1.7-22,9.22-21.24,22.54.68,11.48,10.09,21.2,22,21.27,13.29.07,22.49-8.5,22.59-21C427.82,134.17,419.82,126.37,404.33,126.28ZM346.61,247.84c4.7,0,8,.13,11.32,0,2.2-.11,3.68-1.92,2.86-3.72-.92-2,.67-5.86-3.49-5.88-5.32,0-10.63,0-15.95.11-2.27.06-3.43,1.27-3.74,3.74C336.27,252.38,344.22,246.69,346.61,247.84Z"/>
  <path class="a" d="M724.41,227.31c18.65,0,37.31.13,56-.09,4.64-.06,6.1,1.8,5.28,5.9-4.19,20.89-6.23,42.34-17,61.48q-20,35.65-59.46,45.6c-21.42,5.37-43.11,7.15-64.52.71-13.45-4-25.94-10.48-36.5-20.26-13.14-12.17-23.67-26.51-29.74-43a181.65,181.65,0,0,1-11.19-50.13c-1.32-18.82-1.09-37.6-1.28-56.39-.2-20.56,1.94-41.44,12.52-59.26,7.11-12,20.58-16.52,35-18.86,20.88-3.39,34.59,15.13,40.47,32.07,9.15,26.4,7.32,53.46,7.71,80.47a110.31,110.31,0,0,1-1.05,14.64c-.65,5.39,2,7.1,6.86,7.09q28.47-.05,56.94,0Zm29,10.76c-3,1.22-3,4.26-3.39,6.61-1.63,10.23-4.57,20-9.85,28.91-13.28,22.47-31.11,37.7-59,36.62-10.08-.39-20.47.86-30-2.94-13.42-5.35-23.7-13.77-31.91-26.73C610.53,267,605.71,252.61,602,237.63c-1.66-6.66-5.64-2.34-8.37-3.22-3.4-1.1-3.1,2-3,4,.56,9.86,3.81,19.05,7.09,28.26,10.28,28.78,27.06,49.74,59.89,54.09a126.6,126.6,0,0,0,26.18.53c25.26-1.83,45.29-12.86,60-33.67,6.87-9.71,9.94-20.9,13.95-31.77,2.77-4.18,1.31-9.31,3.09-13.72.74-1.83.91-3.64-1.1-4.72C757.55,236.29,755.24,235.32,753.37,238.07Zm-80,62.17c3.14.8,6.56-1.62,10.29-1.89,33-2.36,45.56-23.44,50.08-50.56.37-2.21,1.74-6.07-2.33-6.38-3.1-.23-5.79,1.36-6.57,5.26-1.09,5.46-2.13,11.07-4.28,16.15-8.1,19.16-24.3,26-43.6,26.42-16.63.34-32.86-1.7-44.12-16.53-6.72-8.85-8.82-19.4-11.49-29.77-.74-2.86-1.78-5.41-5.74-4.51s-4.32,4-3.76,7c1.15,6.14,1.79,12.65,4.37,18.2C628.2,289.46,645.19,298.8,673.35,300.24Zm-39-57.79c0,10.81,7.71,26.18,15.88,30.37,22.81,11.72,56.67,7.65,64.56-26.9.43-1.88,1.79-3.64-.4-5.38s-4.66-2.7-6.94-1.85c-3,1.12-3.62,4.63-4.37,7.34-2.56,9.27-7.32,16.43-17,19.22-9.14,2.63-18.21,5.4-27.62.46-9.67-5.08-12.9-14-14.85-23.69-.62-3.11-2.23-4.28-5.23-3.69C636,238.82,633.72,239.48,634.38,242.45Zm-.47-91.94c.55-15.7-9.46-21.34-21.46-21.8-11.14-.43-22.21,11.63-22.15,23s11.15,22.39,22.26,21.92C624.55,173.15,635.17,162,633.91,150.51Zm39.34,99.6v.14c1.33,0,2.65,0,4,0,3.53.06,7.05.64,7.13-4.91s-3.21-5.19-6.87-5.1-7.3,0-11,0c-1.94,0-4.24-.45-3.84,2.81.33,2.66-1.62,6.43,3.11,7A64.24,64.24,0,0,0,673.25,250.12Z"/>
  <path class="a" d="M600,389.66c2.06,28.81-29.62,42.61-50.56,37.08-13.71-3.62-23.36-12.07-31.79-22.7-3.33-4.2-7-4.41-9.93.37-11.16,18.3-26.6,29.16-48.77,26.58-14.89-1.73-24.46-11.88-31-24.41-9.17-17.5-3.81-34.24,4.51-50.39,10.92-21.22,25.75-39.66,41.34-57.56,10.94-12.56,21.89-25.12,32.45-38,2.21-2.7,3.47-1.92,4.95-.31,19.76,21.49,39.92,42.63,59,64.71,13.6,15.74,25.65,32.81,29.15,54.19A103.31,103.31,0,0,1,600,389.66ZM481.6,321c0,16.17,11,28.07,26.32,28.32s28-11.74,28-26.7c0-16-12.25-27.58-29.11-27.58C491.89,295.07,481.63,305.63,481.6,321Zm-15.74,39.71c-14.47.26-27.15,12.8-26.9,26.6a27.88,27.88,0,0,0,28.67,27.77,25.81,25.81,0,0,0,18.84-8.2c7.82-8.36,7.82-18.24,5.55-29C490.52,370.76,476.53,360.53,465.86,360.73Zm91.74-.34a25.31,25.31,0,0,0-26,24.42c-.57,16.73,11,29.2,27.34,29.45,13.15.2,25.45-11.62,25.69-25.79C584.87,374.67,575,360.38,557.6,360.39Z"/>
  <path class="a" d="M365.64,377.43c0-4.19-.62-8.37-.86-12.56a8,8,0,0,1,.54-2.25,16.49,16.49,0,0,1,1.45,1.45c16.5,21,31.54,43,42.61,67.34A312.45,312.45,0,0,1,425,473c1.31,4.49-2.64,3.85-4.7,4.09-15.8,1.91-31.68,1-47.53,1.17-3.11,0-4.07-1.25-4.15-4.11C368.51,468.55,365.72,404.06,365.64,377.43Z"/>
  <path class="a" d="M629.13,479.54c-8.92-.63-17.84-1.32-26.76-1.86-4-.24-3.72-1.89-2.81-5.22a254.67,254.67,0,0,1,25.53-61.12c8.62-14.86,16.89-30.23,29.39-42.52a32.54,32.54,0,0,1,2.58-2.08,17.91,17.91,0,0,1,.72,3.7c-.34,22.18-.89,44.36-1.06,66.53-.09,11.49-2.5,22.76-2.3,34.31.16,9.29-8.52,6.54-13.79,7.69-3.66.79-7.63.15-11.46.15Z"/>
  <path class="a" d="M571.41,22.06c11.27,3,19.24,10.6,23.86,21.85,4.23,10.29,9.21,20.31,9.82,31.83.19,3.58.12,4.47-3.39,3.19-16.48-6-31.64-13.88-38.91-31.13-3-7.12-4.31-14.76.72-22C565.34,23.14,567.83,22.62,571.41,22.06Z"/>
  <path class="a" d="M462.66,31.24c-.93,18.14-11.06,28.84-24.42,37-6,3.67-12.82,6-19.15,9.22-2.42,1.22-2.57.23-2.34-1.68,2.38-19.54,7.42-38,23.86-50.75,4.34-3.37,9.67-6,15.67-4C461.78,22.9,461.63,28.09,462.66,31.24Z"/>
  <path class="a" d="M663.15,21.39c10.37.28,16.46,11.84,12,20.4-9.29,17.66-25.89,26.74-41.75,36.78-1.33.84-2,.91-2.36-.86-2.38-13.34,13-47.56,24.78-54.38C658.05,22,661.05,21.91,663.15,21.39Z"/>
  <path class="a" d="M360.08,17.41c9.62,1.73,15,9,19.58,16.89C386.49,46,390,58.75,391.57,72.11c.12,1,1,2.66-.74,2.84a5.87,5.87,0,0,1-4.17-1.1c-7.84-7.28-17.76-11.61-25.63-19.16-6.3-6-12.35-11.84-16.11-19.67C341.67,28.24,350.88,17.48,360.08,17.41Z"/>
  <path class="b" d="M392.06,47.86c-4-7.07-2.47-14.69-2.14-22,.29-6.35,2.91-12,10.2-13.63,8.6-2,15.9,3.32,17.58,12.18,3.28,17.34-.53,33-10.17,47.55-1.52,2.28-2.06,3.82-4.66.18C397.51,64.66,395,56.13,392.06,47.86Z"/>
  <path class="b" d="M601.85,43.33c.17-5-.28-10.07.67-14.89,1.63-8.28,6.06-14.75,15.6-14,8.79.7,11.81,7.95,12.12,15.16a102.85,102.85,0,0,1-2.09,27.31c-1.42,6.15-5.9,11.67-9.44,17.21-2.89,4.53-5.59,4.25-7-1.25-2.41-7.92-4.31-16.07-7.58-23.62C603.29,47.36,607.63,43,601.85,43.33Z"/>
  <path class="a" d="M552.76,155.78c.71,5.37-2.33,12.36-.25,19.48.49,1.68-.56,4.2-3.12,2.07-6.34-5.28-13.73-9.24-19.24-15.6-1.59-1.84-1.48-2.61.29-3.77q9.64-6.33,19.26-12.7c2.45-1.62,3.15-.65,3.06,1.88C552.7,149.45,552.76,151.78,552.76,155.78Z"/>
  <path class="a" d="M472.16,161.77q-.67-7.9-1.33-15.8c-.24-2.85.32-3.93,3.58-2.52,6.82,2.94,11.83,8.43,18,12.22,1.56,1,2.42,2.6.14,4.45-6,4.87-11.74,10.06-17.67,15-2.61,2.19-3.08.19-3.12-1.92-.07-3.8,0-7.61,0-11.42Z"/>
  <path class="c" d="M217.94,205.33c8.57-.28,17.14-.79,25.71-.79,32.93,0,65.86.11,98.78.18-17.41.19-34.81.47-52.22.54C266.13,205.36,242,205.31,217.94,205.33Z"/>
  <path class="b" d="M601.85,43.33c5.78-.29,1.44,4,2.26,5.93,3.27,7.55,5.17,15.7,7.58,23.62A50.51,50.51,0,0,1,601.85,43.33Z"/>
  <path class="b" d="M166.76,258.39h1.92l1-.08h0c5.45.25,11,1.23,16.34.6,10.38-1.22,13.61.8,16.58,10.87,3.44,11.66,6,23.74,13.92,33.6,2.12,2.64-.75,4-2.23,4.29-6.9,1.54-12.78,4.74-18.8,8.48a336.18,336.18,0,0,1-33,17.48c-9.92,4.72-20.42,8.23-30.36,12.91-6.77,3.19-14.19,4-21,7.45-6.59,3.37-14.8,3.7-22.35,5.05-12.3,2.19-24.64,2.62-36.29-2.68-7.85-3.57-12.14-10.65-16.54-17.91-4.23-7-2-14.53-3-21.56a23.93,23.93,0,0,1,6.45-19.38c7.51-7.4,15.95-12.81,25.6-17.69,10.26-5.18,21-7.48,31.51-10.3,8.52-2.29,17.18-6.26,26.53-5.26,1.45.16,2.33-.27,1.65-2h0c4.48,0,9,.13,13.45-.06,5.62-.23,11.39-1.69,16.81-.84C159.8,262.13,163.16,260.65,166.76,258.39Zm-1,70.65-1.42,1.31a5.22,5.22,0,0,0,1.51.72c.35,0,.76-.38,1.14-.59Z"/>
  <path class="b" d="M180.7,242.24c-18.81,1.41-37.62-.12-56.42,0-20.12.14-39.49-4.76-59.07-8.28-1.23-.22-2.32-1.2-3.48-1.82a6,6,0,0,0-4.84-2l-.12,0c-6-7.74-16.66-9.89-21.71-19.14a36.91,36.91,0,0,1-4.4-23.67c.85-6.71,4.34-12.43,5-19l0,0a4.6,4.6,0,0,0,4.1-1.81c6.32-7.54,14.66-12,24.25-14,1.06-.23,2.45-.34,2.2,1.63-.1.79-2.53,1.81-.16,2.26,1.28.24,4.4.11,3.92-1.82-1-3.93,2.39-3,3.65-3.58,6.26-2.67,12.1,1.57,18.29,1.81,2.74.1,6.66-3,8.75,1.56l-2.43,1c.18.22.33.6.55.65,1.34.29,1.61-.69,1.85-1.67,7.29-.46,13.51,3.92,20.8,4.37,6,.37,10.52,6.14,16.86,7,3.21.45,5.61,4.19,9.45,2.49h0c.09,1-.14,2.64.32,2.86,7.16,3.42,13.49,7.62,18.37,14.19,3.61,4.86,13.26,3.23,13.73,12.09,0,.28,1.68.56,2.6.68a13.93,13.93,0,0,1,12.11,12.24c.5,6.35.2,13.05.87,19.53.77,7.51-.37,12.34-9.62,10.7C184.52,240.15,182.54,241.6,180.7,242.24Zm-4.79-39.44c1.05-.46,2.8,1.4,3.22-.75.21-1.06-.95-1.69-2-1.31s-3.26,1-3.28,1.57C173.74,204,175.15,202.6,175.91,202.8Zm-14.58-17.63a5.77,5.77,0,0,0-.8-.44c-.05,0-.31.26-.28.32a4.4,4.4,0,0,0,.44.68Zm9.75,6.17a5.7,5.7,0,0,0,.8.43c.05,0,.31-.26.28-.32a4.41,4.41,0,0,0-.44-.68Zm-4.73-3.18a5.86,5.86,0,0,0-.83-.44c-.06,0-.32.27-.29.33a4.47,4.47,0,0,0,.45.69Zm-6.54-7.2,0-.37-.43.16Z"/>
  <path class="b" d="M129.73,48.3c5.67-2.71,11.55-4.45,17.93-3.94l23.09,5.83h0c1.82,6.4,8.51,8.37,12.34,13.18,4.46,5.61,11.2,9.45,13.62,16.89l-.22.33.2-.36c1.92,2.61,3.89,5.19,5.7,7.88.27.4-.2,1.29-.33,1.95-.27,1.32,0,1.86,1.49,1.28,3.21-1.27,4.93,2.1,4.81,3.31-.78,7.52,8.05,10.52,8,17.68,0,.58,1.83,5,5.4,3.8l0,0c-1.55,6.68,3.15,11.36,5.91,16.37,1.58,2.85.85,5.94,2.47,8.52.08.12-2.63,1-1.8,2.27s1.85-.65,2.89-.86c1.49-.3,1.5.56,2.17,1.68,5.73,9.58,7.86,20.51,11.73,30.76,1.52,4,3,8.72-5,10a122.32,122.32,0,0,1-40.4-.67h0c-3-4.37-7.43-7.11-11.73-10-4.13-2.8-8.87-4.31-12.61-8.15-5.8-6-12.16-11.68-20.73-13.72h0c0-2.23-1.53-3.56-2.93-5-10.77-11-22-21.68-30.18-34.92-5.51-8.91-9.68-18.57-10.46-29-.57-7.54-.56-15.33,6-21.74,3.75-3.66,5.62-9.1,11.84-10C130.17,51.54,130.49,49.7,129.73,48.3ZM216.84,121c-2.15-.15-2.72-.35-3.14-.19a19.62,19.62,0,0,0-2.39,1.32c.5.15,1,.5,1.48.41A34.94,34.94,0,0,0,216.84,121Zm-.4,3.26-1.23.77c.25.32.47.85.76.9s.75-.32,1.13-.5Zm-7.85,3.86a4.41,4.41,0,0,0,.58-1.18c0-.14-.46-.51-.66-.48a3.22,3.22,0,0,0-1,.54ZM198.45,91.67c-.11.27-.35.58-.27.75s.45.24.7.35c.11-.25.36-.55.29-.72S198.71,91.8,198.45,91.67Zm35.84,66.41a5.11,5.11,0,0,0-.81-.29c-.06,0-.28.29-.24.34a4.58,4.58,0,0,0,.51.62Zm-11.42-26.22a5.26,5.26,0,0,0,.3-.81c0-.06-.29-.27-.34-.24a4.64,4.64,0,0,0-.63.52ZM240,168.76l-.59,0c.09.07.17.2.27.21S239.9,168.84,240,168.76ZM218.3,133.49a1.07,1.07,0,0,0,.11-.35s-.18-.07-.28-.11a1,1,0,0,0-.11.34S218.2,133.45,218.3,133.49Z"/>
  <path class="b" d="M160,464.1c-26.28-.82-51.32-26.47-46.82-53.14,1.86-11,8-20.72,15.73-29.26,16.31-18.07,35.63-32.11,57.24-43a222.39,222.39,0,0,1,39.82-16c3.38-.95,6-.63,8.89,2.83,10.29,12.36,18.75,26.3,32.7,35.58,6.67,4.43-.44,9.66-2.91,12.87-16.89,22-33.25,44.59-54,63.31C196.18,450.52,180.74,462.44,160,464.1ZM156.21,461c8.38-2.88,18.44-2.48,26-9.88a12,12,0,0,1,6.34-2.74c10.56-1.59,16-10.2,22.47-16.89,3.76-3.87,12-4.7,10.37-12.94,13.58-3.67,15.68-18.18,24.64-26,7.84-6.86,11.07-17,18.83-23.69,1.38-1.2,4.08-3.38,1.2-6.22-5.73-5.63-13.9-8.32-18-16-2.47-4.59-6.52-8.35-9.76-12.46-2.61-3.31-5.26-10.34-11.88-7.71-5.47,2.18-11.3,2.93-16.84,4.72-5.08,1.64-7,6.68-11.64,7.66-8.18,1.72-15.67,4.44-22.71,9.35-16.62,11.61-33.25,23-46.46,38.75-14.17,16.89-18.15,32.9-6.68,51.72C129.48,450.88,140.69,458.57,156.21,461Z"/>
  <path class="b" d="M329.83,82.62c0,25.23,0,50.46,0,75.69,0,6.05.19,16.64.72,22.67.35,4-1.32,6.17-5,6.13-18.51-.21-37-.59-55.54-.83-2.17,0-3.56-.8-4.07-2.84-6.5-26-17.22-50.67-22.76-77.05A275.07,275.07,0,0,1,238,62.18c-1-22.31,13.69-35.48,34.95-38,16-1.88,30.59.31,42.15,13.25,8.45,9.46,11,20.83,12.45,32.73a66.6,66.6,0,0,0,1.78,9.66A8.5,8.5,0,0,1,329.83,82.62Zm-72.11,61.66,0,0a30.18,30.18,0,0,0,1.16,7.79c1,4.37,3.62,7.89,5.12,11.91,2.32,6.22,3.42,12.94,6.15,18.94,1.58,3.46,5.6.16,8.46.5,14.86,1.76,29.78.13,44.65.83,1.5.07,3.39-.2,3-2.31-1-5.87.72-11.53,1.14-17.28,1-13.54-1.13-27-.53-40.64a106.29,106.29,0,0,0-1.29-20.13c-2.18-14,.79-28.57-1.76-42.91-1.55-8.72-6.13-16-11.43-22-4.61-5.22-10.83-10.5-19.39-10.49-3.12,0-7.4,1.71-9.6-2.63-3.09,2.49-7,2.45-10.38,2.06-6.6-.77-11.72,3.12-17.46,4.75-5.24,1.49-5.86,8.81-11.29,11.81-2.43,1.34-2.43,8.11-2.51,12.44-.21,11.52-1.07,22.86,3.21,34.36,2.5,6.71.84,15.11,2.8,22.55C250.51,124.11,253,134.54,257.72,144.27Z"/>
  <path class="b" d="M317.74,492.3c-9.21,11.26-35.32,14.92-49.86,7.48s-18.4-20.55-19.88-35c-3.21-31.16,9.63-57.47,25.46-82.9,6.79-10.91,8.65-11.58,27.4-7,6.75,1.64,13.57,2.65,20.63,1.73,5.14-.68,8.52,1.16,8.62,7.28.42,25.4,1.5,50.81,1.44,76.21,0,12.27-2.43,24.37-13.81,32.18.43-1.24.58-2.7,1.33-3.7,6.23-8.18,7.54-18.47,10.26-27.74,2.43-8.29-.15-18.1-.8-27.22-.14-2-1.92-3.61-1.18-6,2.62-8.58,1.67-17.38.35-25.95-.75-4.87-2.3-9.42-.91-14.49.92-3.37-.13-7.66-4.34-6.64-9.19,2.23-17.47-1.47-25.56-3.67-10.27-2.79-20.21,0-23.06,10.43S263.71,405.43,259.44,415c-5.3,11.82-6.66,24.23-7.26,36.75-.21,4.46,2.26,9,3.5,13.57l0,0c-4.23-.28-3.64,3.61-3.35,5.25.94,5.29,2,10.84,4.52,15.46,2,3.58,5.25,7.09,9.83,8.32l0,0c4.11,2.84,7.89,4.88,13.62,5.23,11.26.68,21.74,1,31.25-6.21C313,492.15,315.65,492.58,317.74,492.3Z"/>
  <path class="b" d="M124.7,262.27c.67,1.69-.2,2.11-1.65,2-9.35-1-18,3-26.53,5.26C86,272.3,75.27,274.6,65,279.79c-9.66,4.88-18.1,10.29-25.6,17.69a23.93,23.93,0,0,0-6.45,19.38c1,7-1.2,14.57,3,21.56,4.4,7.26,8.69,14.34,16.54,17.91,11.65,5.3,24,4.88,36.29,2.68,7.55-1.35,15.76-1.68,22.35-5.05,6.82-3.49,14.25-4.26,21-7.45,9.94-4.69,20.43-8.19,30.36-12.91a336.18,336.18,0,0,0,33-17.48c6-3.73,11.89-6.94,18.8-8.48,1.48-.33,4.35-1.65,2.23-4.29-7.92-9.86-10.48-21.94-13.92-33.6-3-10.07-6.2-12.09-16.58-10.87-5.35.63-10.89-.35-16.34-.6,9.17-3.56,18.71-1.16,28.06-1.62.93,0,2.47,1.78,2.85,3,4.6,14.85,11.45,28.75,17.89,42.82,1.52,3.32.49,4.71-2.7,6.46-22.27,12.24-44.62,24.5-68.08,34.12-18,7.39-36,15.32-56,17.66-13,1.52-25.47,1.9-38.16-.64C45,358.38,30.73,340.55,30,330.72c-2.26-30.1,4.57-39.58,33-53.27C82.33,268.14,103,262.56,124.7,262.27Z"/>
  <path class="b" d="M129.73,48.3c.76,1.4.44,3.24-.79,3.4-6.22.86-8.09,6.29-11.84,10-6.56,6.41-6.58,14.2-6,21.74.79,10.4,5,20.05,10.46,29,8.19,13.24,19.41,23.89,30.18,34.92,1.4,1.43,2.92,2.76,2.93,5-6.19-2.55-10-7.88-14.5-12.41-12.23-12.38-23.11-25.76-29.15-42.37-7.75-21.32-1.73-37.82,15.43-48.31A12.2,12.2,0,0,1,129.73,48.3Z"/>
  <path class="b" d="M100.72,154.27c-2.09-4.55-6-1.45-8.75-1.56-6.2-.23-12-4.47-18.29-1.81-1.25.53-4.62-.35-3.65,3.58.48,1.93-2.65,2.06-3.92,1.82-2.37-.45.06-1.47.16-2.26.25-2-1.14-1.86-2.2-1.63-9.59,2-17.93,6.49-24.25,14a4.6,4.6,0,0,1-4.1,1.81c4.38-10.13,13.61-15.28,23-17.44,31.49-7.23,60.44,2.55,88.47,16,.34.16.41.86.61,1.31-3.84,1.69-6.24-2-9.45-2.49-6.34-.9-10.91-6.67-16.86-7-7.29-.45-13.51-4.83-20.8-4.37Z"/>
  <path class="b" d="M199.77,184.21a122.32,122.32,0,0,0,40.4.67c8-1.25,6.55-5.94,5-10-3.87-10.25-6-21.19-11.73-30.76-.67-1.11-.67-2-2.17-1.68-1,.21-2,2.25-2.89.86s1.88-2.15,1.8-2.27c-1.62-2.58-.9-5.67-2.47-8.52-2.77-5-7.47-9.69-5.91-16.37a255,255,0,0,1,19.52,38.89c3.16,7.8,6.2,15.64,9.31,23.46,1.88,4.72,1.73,7.11-4.71,8-12.08,1.76-24.11,1.81-36.21,1.72A13.27,13.27,0,0,1,199.77,184.21Z"/>
  <path class="b" d="M180.7,242.24c1.84-.64,3.82-2.09,5.49-1.79,9.25,1.63,10.4-3.2,9.62-10.7-.67-6.48-.37-13.18-.87-19.53A13.93,13.93,0,0,0,182.84,198c-.92-.12-2.59-.4-2.6-.68-.47-8.86-10.13-7.24-13.73-12.09-4.89-6.58-11.22-10.77-18.37-14.19-.46-.22-.23-1.87-.32-2.86,13.74,6.36,25.65,15.39,36.92,25.36,8.63,7.63,15.31,16.1,12.76,28.72a17.09,17.09,0,0,0,.19,4C198.47,243.54,198.46,243.54,180.7,242.24Z"/>
  <path class="b" d="M196.72,80.27C194.3,72.83,187.56,69,183.1,63.38c-3.83-4.81-10.51-6.78-12.34-13.18,8.91,4.21,15.94,10.86,22,18.33,11.19,13.77,21.17,28.4,28.32,44.76a17.59,17.59,0,0,1,.72,2.84c-3.57,1.23-5.4-3.22-5.4-3.8,0-7.16-8.82-10.16-8-17.68.13-1.21-1.6-4.58-4.81-3.31-1.47.58-1.76,0-1.49-1.28.13-.66.6-1.55.33-1.95-1.81-2.68-3.78-5.26-5.7-7.88Z"/>
  <path class="b" d="M35.7,168.28c-.69,6.56-4.18,12.28-5,19a36.91,36.91,0,0,0,4.4,23.67c5,9.25,15.72,11.4,21.71,19.14-7.44-.59-12.9-5.6-17.69-10.06-15.75-14.66-15.67-33.69-4.74-51.25C34.55,168.45,35.24,168.43,35.7,168.28Z"/>
  <path class="b" d="M154.68,152.29c8.58,2,14.93,7.76,20.73,13.72,3.74,3.84,8.48,5.36,12.61,8.15,4.3,2.91,8.7,5.65,11.73,10C182.3,177,167.91,165.46,154.68,152.29Z"/>
  <path class="b" d="M166.76,258.39c-3.6,2.26-7,3.74-11.77,3-5.42-.86-11.19.6-16.81.84-4.48.19-9,0-13.45.06,10.07-4.91,21-3.43,31.6-4.08C159.78,258,163.28,258.31,166.76,258.39Z"/>
  <path class="b" d="M170.75,50.2l-23.09-5.83A32,32,0,0,1,170.75,50.2Z"/>
  <path class="b" d="M56.89,230.12a6,6,0,0,1,4.84,2C59.78,232.29,57.78,232.51,56.89,230.12Z"/>
  <path class="b" d="M169.72,258.3l-1,.08Z"/>
  <path class="b" d="M819.62,189.08l-.47.08-.47,0c-3.74-2.87-6.51,1.6-10.21,1.28-9.51-.84-19-.3-28.65-1.76-6.67-1-6.87-3.77-5.8-8.29,2.27-9.57,7.1-18.27,10.73-27.29,5.67-14.09,14.26-27,20.87-40.8,4.24-8.89,11.18-16.46,16.13-25.07,2.28-4,7.77-5.56,8.46-8.86,1.71-8.14,8.91-11.67,13.76-15.18a47.6,47.6,0,0,1,32.79-9.23c14.66,1.35,28.69,13.75,31.17,28.11,1.89,10.94-3.33,19.5-7.66,28-2.37,4.65-3.24,10.26-7.37,14.23-3.64,3.5-6.24,8.07-9.79,11.68q-10,10.18-20.65,19.76A213.33,213.33,0,0,1,825.28,183C822.72,184.43,819.5,185.18,819.62,189.08Z"/>
  <path class="b" d="M839.09,260.26c24.95,1.15,49.9,2.47,74.37,7.93,19.14,4.27,37.75,9.91,54.64,20.49,14.82,9.29,20.62,33.12,14.83,50.11-9,26.38-40.25,28-61.65,22.66-13.28-3.32-26.42-6.69-39.1-11.64-26.59-10.37-51.59-24.07-76.78-37.37-5-2.65-6.13-5.46-3.5-10.53,5.76-11.11,11.77-22.13,14.88-34.4,1.49-5.87,5.07-8.36,11.34-7.36C831.69,260.73,835.43,260.26,839.09,260.26ZM981.78,321.4c4.27-17.46-11.33-24.85-22.68-34.4-7.86-6.61-19-6.1-28.19-10.4-7.69-3.57-16.41-5.52-25.25-6.82-10-1.47-20.18-.32-30-3.51-14.1-4.58-29-2.19-43.47-3.55-9.1-.86-16,8.13-16.58,17.51-.42,6.35-3.6,11.86-7.41,16.5-5.77,7-5.52,10.55,2.78,15.06,10,5.42,19.87,11.1,30.05,16.14,11.38,5.63,22.73,11.68,34.77,15.38,3.67,1.13,4.48,5,7.78,4.75,5.66-.5,10.27,1.22,15.25,4,4.77,2.7,10.86,3,16.22,4.78,16.25,5.48,32.31,7.4,48.34-.82C976.07,349.53,983,337.63,981.78,321.4Z"/>
  <path class="b" d="M862.13,464.14c-20.08-1.1-35.34-10.5-49.1-22.57-17.87-15.67-32.51-34.17-45.72-53.87a100,100,0,0,0-11.42-14.35c-5.17-5.27-4.31-9.2,1.29-13.09,11.48-8,19.09-19.42,27.08-30.53,2.84-4,5.66-5.73,11.64-4.2,23.83,6.09,44.62,18.27,64.75,31.46a118.62,118.62,0,0,1,34.59,34.43c19.66,30.33,5.93,58.47-25.49,71C866.88,463.61,864.13,464.39,862.13,464.14Zm-69.21-135.9c-5.83-1.18-7.39,4-9.75,8.07-4.85,8.42-12.17,14.73-18.6,21.81-3.53,3.88-10.82,5.2-5.35,14.08,2.34,3.79,5.8,5.77,8,9.25,6.72,10.59,13,21.7,21.31,31,11.6,13,22.4,27.33,38.66,35.35,8.35,4.12,15.47,11,25,12.39,13.51,2,24.94-2.4,34.92-11.78,11-10.3,17.59-22.46,13-37.25A76.12,76.12,0,0,0,887.74,388a133.51,133.51,0,0,0-20.53-21.45,173.21,173.21,0,0,0-46-27.79C812.07,335,804,328.45,792.92,328.24Z"/>
  <path class="b" d="M777.88,45.11c7.16,7.62,5.58,17.24,5.73,26.32.48,28.37-8,54.86-17.26,81.21-3.71,10.55-6.73,21.35-9.89,32.08-1.06,3.6-2.6,5.66-6.84,5.59-17.3-.25-34.6-.3-51.91-.23-4.25,0-5.5-1.95-5.4-5.78.59-22.6.85-45.21,1.75-67.79.75-18.85-.32-37.92,4-56.43,2.39-10.34,14.64-27.43,29.21-30.28,14.27-2.79,27.37-1.75,40.27,4.57,1.87.91,6.38,2.79,7.1,4.82-.12.13-3.14-.69-3.26-.57-7-1.4-12.3-7.07-19.67-7.35l-.33-.21.36.18c-.41.26-.95.85-1.2.75-10.91-4.52-20.42.61-30.11,4.37a7.75,7.75,0,0,0-1.84,1.5c.61.17,1.22.35,1.84.51l2.17.53a22.39,22.39,0,0,1-2.14,1.17c-4.38,1.83-8.61,1.67-12.42,7.09-6.72,9.58-5.76,20.75-10,30.61-1.74,4,2.13,10.39,1.32,13.74-1.85,7.61-3.09,15.65-1,22.23,2.61,8.08.36,15.25-.5,22.43a361.13,361.13,0,0,0-2.61,47.16,4.75,4.75,0,0,0,5.06,4.92c15.68-.18,31.37,0,47.06,0,3.51,0,5.43-1.3,6.71-5.12,2.05-6.14,3.79-12.38,5.71-18.48,3.57-11.35,7.54-22.56,10-34.22,1.1-5.13,2-10.31,3.3-15.39,2-7.67,5.15-15.14,6.27-22.91,2.23-15.57,4.32-31.32-2-46.61Z"/>
  <path class="b" d="M819.62,189.08c-.12-3.9,3.11-4.65,5.67-6.11a213.33,213.33,0,0,0,37.17-27.23q10.6-9.57,20.65-19.76c3.55-3.61,6.15-8.18,9.79-11.68,4.14-4,5-9.58,7.37-14.23,4.34-8.51,9.56-17.07,7.66-28-2.49-14.37-16.52-26.76-31.17-28.11A47.6,47.6,0,0,0,844,63.17c-4.85,3.51-12.06,7-13.76,15.18-.69,3.29-6.18,4.89-8.46,8.86-5,8.61-11.88,16.18-16.13,25.07-6.6,13.83-15.2,26.71-20.87,40.8-3.63,9-8.47,17.73-10.73,27.29-1.07,4.51-.87,7.27,5.8,8.29,9.61,1.46,19.14.92,28.65,1.76,3.71.33,6.47-4.15,10.21-1.28-2.6,4.2-7.27,3.43-10.84,3.5a164.62,164.62,0,0,1-34.63-2.72c-3.2-.62-3.74-2.86-2.77-5.71,10.19-30,24.2-58.22,40.23-85.53a143,143,0,0,1,33.73-39.53c13.84-11.17,37-12,50.9-1,19.56,15.5,18.93,33.78,8.53,53.43-10.12,19.12-24.11,35-41,48.34C849.18,170.69,835.84,182,819.62,189.08Z"/>
  <path class="b" d="M821.51,234c.5-6.28.56-12.47,1.58-18.51,2.13-12.64,12.52-19.47,21.43-26.21,12.15-9.18,25-18,39.36-23.56,21.59-8.39,44-14.27,67.21-11,27,3.83,44.81,32.28,33.94,58.18-5.85,13.93-19.26,21.09-33.86,25.2-40.84,11.48-82.64,7.9-124.18,8C817.57,246.12,823.27,238.07,821.51,234Zm2.42,5c-.73,4.36,2.43,5.17,6.62,5.19,39.55.24,79.17,1.64,118.06-8,9.28-2.29,17.52-7.53,24.54-13,12.91-10.11,11.72-25.46,9.35-40-1.69-10.41-26-29-39.25-26.81-9.88,1.6-19.83.82-29.88,4.49-6,2.19-13.46.49-18.4,6.85-.59.76-3.48.62-4.62-.13-1.74-1.15-2.56-.84-4.26.1-14.53,8-29.33,15.51-42.35,25.9-8.07,6.43-16.64,12.86-18.25,24.1C824.52,224.41,824.46,231.27,823.93,239Z"/>
  <path class="b" d="M774.38,457.52c-.79,11.16-3,21.65-8.57,31.37-6.78,11.87-18.61,14.72-30.35,14.48-13-.26-25.94-3.11-34.82-14.7-7-9.12-9.29-19.86-9.46-30.62-.29-17.89,1-35.81,1.62-53.71.26-7.13.57-14.25.91-21.38.13-2.84,1.21-4.89,4.53-4.61,13.28,1.12,26-3.18,39-4.46,3.82-.38,6.77.6,8.43,3.76,8.48,16.16,19.58,31.15,24.38,49C772.71,436.58,773,447.19,774.38,457.52Zm-60.46-77.18c-5.75,0-9.61.24-13.41-.08-2.58-.22-4.73,2-4.3,2.85,2.84,5.4-1.11,10.08-1,15.09.13,7.06,1.08,14.21.3,21.16-2,17.47-2.77,34.77.3,52.26,2.54,14.47,17.15,28.1,32.14,28.62,16.41.56,15.91-.18,32.66-11.56,8.21-5.58,6.35-13.68,8.83-20.51,3.47-9.56-.46-19.9.15-29.93A25.4,25.4,0,0,0,768.4,430c-4.85-17.3-14.68-32.2-23.74-47.39-1.25-2.1-1.68-7.53-7-5.9C729.32,379.34,720.84,381.14,713.92,380.34Z"/>
  <path class="b" d="M771.71,38.25c4,.59,5.86,3,6.17,6.86l-.5.39c-3.49-1-4-4.57-6-6.87Z"/>
  <path class="d" d="M341.47,310.38c23,.47,42.54-2.47,57.82-18.24,12-12.39,17.39-28.19,22.38-44.15,1-3.14,1.57-6.4,2.36-9.6,1-4.09,3.8-5,7.54-4.28,4.06.82,2.84,4.31,2.43,6.35A149,149,0,0,1,418.53,284c-14,25.32-36.23,35.51-64.3,36.44-18.56.62-36.06-2.19-52.15-11.51-26.19-15.17-38.93-38.68-41.36-68.33-.31-3.83-.09-6.66,5.18-6.74s5.4,3.87,5.28,6.66c-.54,12.87,5.25,23.56,10.82,34.4,6.53,12.7,18.29,19.67,29.58,27.2C321.4,308.7,332.74,309,341.47,310.38Z"/>
  <path class="d" d="M352.41,298.26c-18.27,0-33.25-4.89-46.2-13.65-10.94-7.4-16.18-19.6-18.49-32.71-.54-3.08-1.38-6.1-2-9.17-.67-3.55,1.45-4.81,4.5-5s4.8.56,5.5,4.1c1.93,9.83,2.85,20.41,10.12,28,13.17,13.74,29.67,19.75,48.71,18.1,10.63-.92,20.89-2.92,29.57-10.07,11.34-9.35,15.55-22.25,18.4-35.77,1-4.6,2.95-5.57,7.18-5,4.78.58,2.9,4,2.58,6-2.9,18.16-9.92,34.3-24.71,46-7.79,6.16-17.56,6.92-27,8.15Z"/>
  <path class="d" d="M307.32,242c-.39-2.19.22-4.94,4.62-5.76s3.33,2.55,4.34,4.7c9,19.13,26.37,28.9,48.32,21.91,8.74-2.78,12.76-11.2,13.43-20.64.52-7.43,4.34-9.42,10.58-6a3.08,3.08,0,0,1,1.74,3.14c.58,22.36-19.56,39.54-42.12,37.21-14.69-1.52-27.8-4.72-36.05-18.22A33.8,33.8,0,0,1,307.32,242Z"/>
  <path class="e" d="M404.33,126.28c15.49.09,23.49,7.89,23.37,22.77-.1,12.54-9.3,21.11-22.59,21-11.94-.06-21.35-9.79-22-21.27C382.3,135.49,393.5,124.58,404.33,126.28Zm1.84,34.5c7.19-.39,11.65-4.37,12.17-11.51a11.85,11.85,0,0,0-12.11-12.84c-6.22.16-11.87,6.84-11.46,13.83S399.15,160.64,406.17,160.78Z"/>
  <path class="d" d="M346.61,247.84c-2.39-1.16-10.34,4.54-9-5.81.32-2.47,1.47-3.68,3.74-3.74,5.31-.13,10.63-.14,15.95-.11,4.16,0,2.57,3.87,3.49,5.88.82,1.8-.66,3.61-2.86,3.72C354.63,248,351.31,247.84,346.61,247.84Z"/>
  <path class="d" d="M757.74,255.9c-4,10.87-7.08,22.06-13.95,31.77-14.73,20.81-34.76,31.85-60,33.67a126.6,126.6,0,0,1-26.18-.53c-32.83-4.35-49.61-25.31-59.89-54.09-3.29-9.21-6.54-18.4-7.09-28.26-.11-2-.42-5.14,3-4,2.73.88,6.71-3.44,8.37,3.22,3.74,15,8.57,29.33,17.18,42.91,8.22,13,18.49,21.37,31.91,26.73,9.55,3.81,19.94,2.56,30,2.94,27.93,1.07,45.76-14.15,59-36.62,5.28-8.93,8.21-18.68,9.85-28.91.38-2.35.39-5.39,3.39-6.61,4-.26,5.58,1.72,5.28,5.56C758.31,247.72,758,251.81,757.74,255.9Z"/>
  <path class="d" d="M673.35,300.24c-28.16-1.44-45.15-10.78-57.15-36.63-2.58-5.55-3.21-12.06-4.37-18.2-.56-3-.33-6,3.76-7s5,1.65,5.74,4.51c2.68,10.37,4.77,20.92,11.49,29.77,11.26,14.82,27.48,16.86,44.12,16.53,19.31-.39,35.5-7.26,43.6-26.42,2.15-5.08,3.19-10.69,4.28-16.15.78-3.9,3.47-5.49,6.57-5.26,4.07.31,2.7,4.16,2.33,6.38-4.52,27.12-17.1,48.2-50.08,50.56C679.91,298.62,676.49,301,673.35,300.24Z"/>
  <path class="d" d="M634.38,242.45c-.66-3,1.63-3.63,4-4.11,3-.59,4.61.58,5.23,3.69,1.94,9.74,5.18,18.61,14.85,23.69,9.41,4.94,18.49,2.16,27.62-.46,9.69-2.79,14.45-9.95,17-19.22.75-2.71,1.37-6.22,4.37-7.34,2.28-.85,4.84.17,6.94,1.85s.83,3.5.4,5.38c-7.89,34.55-41.76,38.62-64.56,26.9C642.09,268.63,634.36,253.27,634.38,242.45Z"/>
  <path class="e" d="M633.91,150.51c1.26,11.49-9.36,22.64-21.36,23.14-11.11.47-22.2-10.64-22.26-21.92s11-23.46,22.15-23C624.44,129.18,634.45,134.82,633.91,150.51Zm-23.26,12.88c8.23,0,14-5.18,13.76-12-.27-6.57-3.5-11.5-10.67-12-6.27-.43-12.79,6.28-12.71,12.71C601.1,159.16,604.56,163.2,610.65,163.39Z"/>
  <path class="d" d="M673.25,250.12a64.24,64.24,0,0,1-7.45-.05c-4.73-.56-2.78-4.32-3.11-7-.4-3.25,1.9-2.8,3.84-2.81,3.65,0,7.31.07,11,0s7-.35,6.87,5.1-3.6,5-7.13,4.91c-1.33,0-2.65,0-4,0Z"/>
  <path class="c" d="M757.74,255.9c.3-4.09.57-8.18.9-12.27.3-3.84-1.3-5.82-5.28-5.56,1.88-2.75,4.19-1.78,6.37-.61,2,1.08,1.84,2.88,1.1,4.72C759.05,246.59,760.51,251.72,757.74,255.9Z"/>
  <path class="d" d="M481.6,321c0-15.39,10.29-26,25.19-26,16.86,0,29.11,11.6,29.11,27.58,0,15-12.56,27-28,26.7S481.56,337.19,481.6,321Z"/>
  <path class="d" d="M465.86,360.73c10.67-.19,24.66,10,26.16,17.15,2.27,10.77,2.27,20.65-5.55,29a25.81,25.81,0,0,1-18.84,8.2A27.88,27.88,0,0,1,439,387.32C438.71,373.53,451.39,361,465.86,360.73Z"/>
  <path class="d" d="M557.6,360.39c17.39,0,27.27,14.28,27,28.08-.24,14.18-12.54,26-25.69,25.79C542.6,414,531,401.54,531.6,384.81A25.31,25.31,0,0,1,557.6,360.39Z"/>
  <path class="b" d="M165.79,329l1.23,1.45c-.38.21-.79.63-1.14.59a5.22,5.22,0,0,1-1.51-.72Z"/>
  <path class="b" d="M175.91,202.8c-.76-.2-2.17,1.23-2.1-.49,0-.57,2.09-1.17,3.28-1.57s2.26.26,2,1.31C178.71,204.19,177,202.33,175.91,202.8Z"/>
  <path class="b" d="M100.69,154.25c-.24,1-.5,2-1.85,1.67-.22,0-.37-.42-.55-.65l2.43-1Z"/>
  <path class="b" d="M161.33,185.17l-.65.56a4.4,4.4,0,0,1-.44-.68c0-.06.23-.34.28-.32A5.77,5.77,0,0,1,161.33,185.17Z"/>
  <path class="b" d="M171.09,191.34l.64-.56a4.41,4.41,0,0,1,.44.68c0,.06-.23.34-.28.32A5.7,5.7,0,0,1,171.09,191.34Z"/>
  <path class="b" d="M166.36,188.16l-.67.58a4.47,4.47,0,0,1-.45-.69c0-.06.23-.35.29-.33A5.86,5.86,0,0,1,166.36,188.16Z"/><polygon class="b" points="159.81 180.96 159.42 180.75 159.84 180.59 159.81 180.96"/>
  <path class="b" d="M216.84,121a34.94,34.94,0,0,1-4.05,1.54c-.45.09-1-.26-1.48-.41a19.62,19.62,0,0,1,2.39-1.32C214.13,120.68,214.69,120.88,216.84,121Z"/>
  <path class="b" d="M216.45,124.3l.66,1.16c-.38.19-.79.56-1.13.5s-.51-.58-.76-.9Z"/>
  <path class="b" d="M208.6,128.16,207.53,127a3.22,3.22,0,0,1,1-.54c.2,0,.68.34.66.48A4.41,4.41,0,0,1,208.6,128.16Z"/>
  <path class="b" d="M198.45,91.67c.26.13.64.2.71.38s-.18.48-.29.72c-.25-.11-.62-.17-.7-.35S198.34,91.94,198.45,91.67Z"/>
  <path class="b" d="M234.29,158.08l-.54.67a4.58,4.58,0,0,1-.51-.62c0-.05.18-.35.24-.34A5.11,5.11,0,0,1,234.29,158.08Z"/>
  <path class="b" d="M222.87,131.86l-.67-.54a4.64,4.64,0,0,1,.63-.52c.05,0,.36.18.34.24A5.26,5.26,0,0,1,222.87,131.86Z"/>
  <path class="c" d="M240,168.77c-.11.07-.22.17-.32.16s-.18-.13-.27-.21Z"/>
  <path class="b" d="M218.3,133.49c-.1,0-.28-.07-.28-.11a1,1,0,0,1,.11-.34c.1,0,.28.07.28.11A1.07,1.07,0,0,1,218.3,133.49Z"/>
  <path class="b" d="M196.69,80.25l-.2.36.22-.33Z"/>
  <path class="b" d="M156.21,461c-15.53-2.48-26.74-10.17-34.17-22.36-11.47-18.82-7.49-34.83,6.68-51.72,13.21-15.74,29.84-27.15,46.46-38.75,7-4.91,14.53-7.63,22.71-9.35,4.66-1,6.56-6,11.64-7.66,5.54-1.79,11.37-2.54,16.84-4.72,6.62-2.63,9.27,4.4,11.88,7.71,3.24,4.11,7.29,7.88,9.76,12.46,4.14,7.7,12.32,10.38,18,16,2.89,2.84.19,5-1.2,6.22-7.76,6.73-11,16.83-18.83,23.69-9,7.83-11.06,22.34-24.64,26,1.6,8.24-6.61,9.07-10.37,12.94-6.51,6.69-11.91,15.3-22.47,16.89a12,12,0,0,0-6.34,2.74C174.65,458.57,164.59,458.16,156.21,461Zm-3.85-2.66-.79.35a4.26,4.26,0,0,0,.7.4c.11,0,.27-.1.41-.15C152.59,458.78,152.49,458.59,152.36,458.39Z"/>
  <path class="b" d="M257.72,144.27c-4.68-9.73-7.21-20.16-9.94-30.52-2-7.44-.3-15.84-2.8-22.55-4.29-11.5-3.42-22.84-3.21-34.36.08-4.33.09-11.1,2.51-12.44,5.43-3,6-10.32,11.29-11.81,5.74-1.63,10.86-5.52,17.46-4.75,3.37.39,7.29.43,10.38-2.06,2.2,4.34,6.48,2.64,9.6,2.63,8.55,0,14.78,5.27,19.39,10.49,5.31,6,9.88,13.32,11.43,22,2.54,14.35-.42,28.91,1.76,42.91A106.29,106.29,0,0,1,326.88,124c-.6,13.62,1.53,27.1.53,40.64-.42,5.75-2.12,11.4-1.14,17.28.35,2.11-1.54,2.38-3,2.31-14.87-.7-29.79.93-44.65-.83-2.86-.34-6.89,3-8.46-.5-2.73-6-3.83-12.72-6.15-18.94-1.5-4-4.11-7.54-5.12-11.91a30.18,30.18,0,0,1-1.16-7.79l1.46-.91-.57-.54Zm-4.83-104c-.11-.27-.15-.66-.32-.73a2.25,2.25,0,0,0-.93,0l.38,1.06Zm-.75,79.91.72-.42c-.11-.1-.22-.3-.33-.3a5.2,5.2,0,0,0-.87.15C251.8,119.78,252,120,252.14,120.15Zm73.76,38.71a4.1,4.1,0,0,0-.69-.48c-.11,0-.3.07-.45.11.07.21.15.6.22.6A4.05,4.05,0,0,0,325.9,158.87Z"/>
  <path class="b" d="M317.74,492.3c-2.09.29-4.72-.14-6.18,1-9.51,7.24-20,6.9-31.25,6.21-5.73-.35-9.51-2.39-13.62-5.23l.22-.33-.19.35c-4.58-1.23-7.87-4.73-9.83-8.32-2.53-4.62-3.57-10.18-4.52-15.46-.29-1.64-.89-5.54,3.35-5.25l.33.21-.36-.18c-1.25-4.53-3.71-9.11-3.5-13.57.6-12.52,2-24.93,7.26-36.75,4.27-9.52,11.55-17.31,14.38-27.67s12.79-13.22,23.06-10.43c8.09,2.2,16.37,5.89,25.56,3.67,4.22-1,5.27,3.27,4.34,6.64-1.39,5.07.16,9.61.91,14.49,1.32,8.57,2.28,17.37-.35,25.95-.74,2.43,1,4.06,1.18,6,.64,9.12,3.23,18.93.8,27.22-2.72,9.27-4,19.56-10.26,27.74-.76,1-.9,2.45-1.33,3.7Zm-53-84.05.31.21-.34-.19-.34-.21Zm48.34,41.46c1-.86,2.62-1.56,3.06-2.7a2.13,2.13,0,0,0-2.17-2.62c-1.7-.06-2.3,1-2.17,2.56C311.87,447.95,311.27,449.33,313.06,449.71ZM281.55,378.5l-.61-.19c0,.14-.15.32-.1.43a3.45,3.45,0,0,0,.44.59Z"/>
  <path class="b" d="M981.78,321.4c1.17,16.23-5.71,28.13-18.41,34.65-16,8.22-32.09,6.31-48.34.82-5.35-1.81-11.44-2.07-16.22-4.78-5-2.82-9.58-4.53-15.25-4-3.29.29-4.11-3.62-7.78-4.75-12-3.7-23.39-9.75-34.77-15.38-10.18-5-20.06-10.72-30.05-16.14-8.3-4.51-8.56-8-2.78-15.06,3.81-4.64,7-10.15,7.41-16.5.62-9.38,7.49-18.37,16.58-17.51,14.49,1.37,29.37-1,43.47,3.55,9.82,3.19,20,2,30,3.51,8.84,1.3,17.56,3.25,25.25,6.82,9.24,4.29,20.33,3.78,28.19,10.4C970.45,296.54,986.05,303.93,981.78,321.4ZM827.34,266.15a5.91,5.91,0,0,0-.84-.45c-.06,0-.32.27-.29.33a4.54,4.54,0,0,0,.45.7Z"/>
  <path class="b" d="M792.92,328.24c11.11.21,19.14,6.75,28.26,10.5a173.21,173.21,0,0,1,46,27.79A133.51,133.51,0,0,1,887.74,388a76.12,76.12,0,0,1,12.37,23.19c4.61,14.79-2,26.95-13,37.25-10,9.37-21.4,13.8-34.92,11.78-9.54-1.43-16.66-8.27-25-12.39-16.26-8-27.06-22.33-38.66-35.35-8.28-9.29-14.59-20.4-21.31-31-2.21-3.48-5.68-5.46-8-9.25-5.47-8.88,1.82-10.2,5.35-14.08,6.43-7.07,13.75-13.38,18.6-21.81C785.53,332.22,787.1,327.06,792.92,328.24Z"/>
  <path class="b" d="M772.88,37.45c4.18,3.21,5.45,6,6.75,8.05,7.44,11.51,1.87,31.76-.26,46.61-1.11,7.77-4.27,15.24-6.27,22.91-1.32,5.07-2.2,10.26-3.3,15.39-2.5,11.67-6.47,22.87-10,34.22-1.92,6.1-3.65,12.33-5.71,18.48-1.28,3.82-3.19,5.12-6.71,5.12-15.69,0-31.38-.16-47.06,0a4.75,4.75,0,0,1-5.06-4.92,361.13,361.13,0,0,1,2.61-47.16c.86-7.18,3.11-14.35.5-22.43-2.13-6.59-.89-14.62,1-22.23.82-3.35-3.06-9.74-1.32-13.74,4.29-9.86,3.33-21,10-30.61,3.8-5.42,8-5.27,12.42-7.09a22.39,22.39,0,0,0,2.14-1.17l-2.17-.53c-.62-.16-1.22-.34-1.84-.51a7.75,7.75,0,0,1,1.84-1.5c9.69-3.76,19.2-8.89,30.11-4.37.25.1.79-.48,1.2-.75l0,0C759.06,31.56,768.92,35.12,772.88,37.45Z"/>
  <path class="b" d="M751.72,31.25l-.36-.18.33.21Z"/>
  <path class="b" d="M823.93,239c.53-7.74.58-14.6,1.55-21.33,1.61-11.24,10.19-17.67,18.25-24.1,13-10.38,27.82-17.92,42.35-25.9,1.71-.94,2.52-1.25,4.26-.1,1.14.76,4,.89,4.62.13,4.93-6.37,12.4-4.66,18.4-6.85,10.05-3.67,20-2.89,29.88-4.49,13.27-2.15,37.56,16.41,39.25,26.81,2.37,14.58,3.56,29.93-9.35,40-7,5.49-15.26,10.73-24.54,13-38.89,9.61-78.51,8.2-118.06,8C826.36,244.18,823.2,243.37,823.93,239Z"/>
  <path class="b" d="M713.92,380.34c6.92.81,15.41-1,23.77-3.58,5.29-1.63,5.72,3.8,7,5.9,9.06,15.19,18.89,30.08,23.74,47.39a25.4,25.4,0,0,1,1.16,8.19c-.61,10,3.32,20.36-.15,29.93-2.47,6.82-.62,14.93-8.83,20.51-16.75,11.38-16.25,12.12-32.66,11.56-15-.52-29.6-14.15-32.14-28.62-3.07-17.49-2.28-34.78-.3-52.26.79-7-.16-14.1-.3-21.16-.09-5,3.86-9.69,1-15.09-.43-.82,1.72-3.08,4.3-2.85C704.31,380.58,708.16,380.34,713.92,380.34Z"/>
  <path class="d" d="M406.17,160.78c-7-.14-11-3.55-11.39-10.53s5.24-13.67,11.46-13.83a11.85,11.85,0,0,1,12.11,12.84C417.82,156.41,413.36,160.39,406.17,160.78Z"/>
  <path class="d" d="M610.65,163.39c-6.08-.19-9.54-4.23-9.62-11.3-.08-6.43,6.44-13.14,12.71-12.71,7.17.49,10.41,5.42,10.67,12C624.68,158.21,618.87,163.41,610.65,163.39Z"/>
  <path class="b" d="M152.38,458.39c.11.2.21.39.32.59-.14.06-.31.19-.41.15a4.26,4.26,0,0,1-.7-.4Z"/>
  <path class="b" d="M252.89,40.24l-.87.37-.38-1.06a2.25,2.25,0,0,1,.93,0C252.74,39.58,252.78,40,252.89,40.24Z"/>
  <path class="b" d="M257.72,144.27l.86-1.48.57.54-1.46.91Z"/>
  <path class="b" d="M252.12,120.15l-.47-.56a5.2,5.2,0,0,1,.87-.15c.11,0,.22.19.33.3Z"/>
  <path class="c" d="M325.9,158.87a4.05,4.05,0,0,1-.92.22c-.07,0-.15-.39-.22-.6.15,0,.34-.16.45-.11A4.1,4.1,0,0,1,325.9,158.87Z"/>
  <path class="b" d="M313.06,449.71c-1.79-.38-1.19-1.76-1.28-2.76-.13-1.51.46-2.62,2.17-2.56a2.13,2.13,0,0,1,2.17,2.62C315.68,448.15,314.1,448.85,313.06,449.71Z"/>
  <path class="b" d="M281.55,378.5l-.27.84a3.45,3.45,0,0,1-.44-.59c0-.1.06-.28.1-.43Z"/>
  <path class="b" d="M264.72,408.24l-.36-.18.34.21Z"/>
  <path class="b" d="M264.69,408.27l.34.19-.31-.21Z"/>
  <path class="b" d="M255.69,465.27l.36.18-.33-.21Z"/>
  <path class="b" d="M266.71,494.27l.19-.35-.22.33Z"/>
  <path class="c" d="M827.34,266.15l-.68.59a4.54,4.54,0,0,1-.45-.7c0-.06.24-.35.29-.33A5.91,5.91,0,0,1,827.34,266.15Z"/>
  <a xmlns="http://www.w3.org/2000/svg" id="svg-logo-anchor" xlink:href="/#header-carousel" xmlns:xlink="http://www.w3.org/1999/xlink" target="_top">
    <rect x="0" y="0" width="100%" height="100%" fill-opacity="0"/>
  </a>
</svg>