<svg xmlns="http://www.w3.org/2000/svg" viewBox="0 0 1027.22 183">
  <defs>
    <style>.a{fill:#fff;}</style>
  </defs>
  <title>Asset 13</title>
  <path class="a" d="M368.12,118.89V80.52l-14.25,38.36h-8.61L331,80.52v38.36H311.67V55.07h26.69l11.19,30.62,11.19-30.62h26.69v63.81Z"/>
  <path class="a" d="M396.72,87c0-20.47,15.79-33,35.11-33,15.21,0,24,8.42,28,16.65L443.6,79c-1.82-3.92-6-7.94-11.77-7.94-9.28,0-15.5,7.08-15.5,16s6.22,16,15.5,16c3.64,0,7.94-1.34,10-2.87v-2.3H429.92V81H461v26.12A37.88,37.88,0,0,1,431.84,120C412.51,120,396.72,107.41,396.72,87Z"/>
  <path class="a" d="M469.72,93.44V79.09h23V93.44Z"/>
  <path class="a" d="M498.23,109.89l10-14.35a29.74,29.74,0,0,0,20.57,8.23c3.64,0,7.08-1,7.08-3.44,0-6.12-35.59.1-35.59-25.07,0-10.81,9-21.14,26.5-21.14,10.43,0,19.8,3,27.08,8.9L543.58,76.7a32.25,32.25,0,0,0-18.75-6.31c-3.83,0-4.88,1.24-4.88,2.87,0,6,35.49.86,35.49,24.59,0,14.06-10.43,22.2-27.55,22.2C514.31,120,505,116,498.23,109.89Z"/>
  <path class="a" d="M575.92,118.89v-47H558.8V55.07h53.48V71.91h-17v47Z"/>
  <path class="a" d="M621.56,92.67V55.07h19.61V92c0,6.12,4,11,12,11S665,98.13,665,92V55.07h19.61v37.5c0,15.88-10,27.46-31.48,27.46S621.56,108.46,621.56,92.67Z"/>
  <path class="a" d="M697.33,118.89V55.07h28.51c20.09,0,35,11.48,35,31.86s-14.93,32-34.92,32Zm43.91-32c0-8.61-5-15-15.31-15h-9.28V102h9.18C735.51,102,741.25,95,741.25,86.93Z"/>
  <path class="a" d="M770.14,118.89V55.07h19.33v63.81Z"/>
  <path class="a" d="M798.75,87c0-19.61,15.21-33,34.92-33s34.92,13.39,34.92,33-15.21,33-34.92,33S798.75,106.64,798.75,87ZM849,87c0-8.9-6-16-15.31-16s-15.31,7.08-15.31,16,6,16,15.31,16S849,95.93,849,87Z"/>
  <path class="a" d="M874,109.8A10.24,10.24,0,1,1,884.28,120,10.37,10.37,0,0,1,874,109.8Z"/>
  <path class="a" d="M900.55,109.89l10-14.35a29.74,29.74,0,0,0,20.57,8.23c3.64,0,7.08-1,7.08-3.44,0-6.12-35.59.1-35.59-25.07,0-10.81,9-21.14,26.5-21.14,10.43,0,19.8,3,27.08,8.9L945.89,76.7a32.25,32.25,0,0,0-18.75-6.31c-3.83,0-4.88,1.24-4.88,2.87,0,6,35.49.86,35.49,24.59,0,14.06-10.43,22.2-27.55,22.2C916.62,120,907.34,116,900.55,109.89Z"/>
  <path class="a" d="M1003.68,118.89,989.33,96.4l-3.54,4.78v17.7H966.46V55.07h19.33V79l16.74-23.92h23.63l-24.11,29.66,25.16,34.16Z"/>
  <polygon class="a" points="0 183 277.99 183 252.35 91.94 279.75 0 0 0 0 183"/>
  <path d="M121.74,108.78l.91,1.08a49.16,49.16,0,0,1-11,8.21,14.18,14.18,0,0,1-6,2,3.65,3.65,0,0,1-4.1-2.88,9.92,9.92,0,0,1,.75-5.71A48,48,0,0,1,110,98.58c3.29-4.2,6.74-8.27,10.21-12.32,2.31-2.69,4.75-5.27,7.17-7.86s4.87-5.1,7.31-7.64c1.33-1.38,2.68-2.75,4-4.12A1.17,1.17,0,0,0,139,66a4.62,4.62,0,0,0-.72.16,27.85,27.85,0,0,0-6.49,3.75,75.79,75.79,0,0,0-9.94,9.18c-2.28,2.43-4.48,5-6.69,7.45-2,2.21-3.89,4.43-5.8,6.68-2.17,2.56-4.29,5.16-6.43,7.73-1.71,2.05-3.37,4.14-5.15,6.13-2.68,3-5.38,6-8.21,8.88a24.35,24.35,0,0,1-4.43,3.48c-2.49,1.56-4,.18-4.11-2.41a11.62,11.62,0,0,1,1.33-5.37c2.85-6.31,7-11.79,11.31-17.11,3.12-3.83,6.35-7.59,9.71-11.21,4.32-4.65,8.8-9.14,13.24-13.68,1.27-1.3,2.62-2.53,3.94-3.8.17-.17.32-.36.48-.54l-.11-.18c-.72.3-1.45.57-2.16.9a36.26,36.26,0,0,0-8.3,5.54c-2.71,2.37-5.36,4.81-7.88,7.37-3,3-5.8,6.17-8.66,9.29s-5.54,6.11-8.33,9.15c-2,2.2-4,4.42-6.15,6.55-3.36,3.39-6.71,6.79-10.21,10a60.74,60.74,0,0,1-6.2,4.81,6.32,6.32,0,0,1-4.22,1.46,4.2,4.2,0,0,1-3.68-3.22,6.3,6.3,0,0,1,3.23-6.75,2.26,2.26,0,0,1,3.27,1.56A2.42,2.42,0,0,1,60,114.46c-.65.23-1.28.5-1.92.77a1.34,1.34,0,0,0-.79,1.53,1.56,1.56,0,0,0,1,1.35,3.89,3.89,0,0,0,3.57-.39,29.54,29.54,0,0,0,6-4.59c2.72-2.59,5.41-5.23,8-7.93,2.28-2.35,4.44-4.8,6.65-7.21,1.73-1.89,3.44-3.79,5.17-5.67,2.92-3.17,5.81-6.36,8.8-9.46q4.85-5,9.87-9.86a71.37,71.37,0,0,1,6.13-5.35,21.59,21.59,0,0,1,10.73-4.75A17.6,17.6,0,0,1,126,63l-1.67,1.88c-3.23,3.63-6.49,7.23-9.67,10.89s-6.38,7.38-9.45,11.16q-5.32,6.56-10.42,13.3c-2.88,3.82-5.64,7.73-8.37,11.66-1,1.39-1.68,3-2.5,4.45a.46.46,0,0,0-.09.19c0,.43,0,.86,0,1.29.43-.06,1,0,1.27-.22a48.08,48.08,0,0,0,4-3.5c1.67-1.69,3.25-3.46,4.8-5.26,2.86-3.32,5.67-6.69,8.51-10,2.48-2.93,4.93-5.89,7.45-8.79,2.74-3.17,5.5-6.32,8.33-9.41,2.24-2.44,4.59-4.79,6.9-7.16a46,46,0,0,1,10.27-8.21,14.52,14.52,0,0,1,8.16-2.17l.6.06L141.72,66q-2.85,3.41-5.7,6.83c-3,3.66-6.12,7.28-9.09,11-3.69,4.61-7.34,9.25-10.88,14-3.06,4.09-6,8.29-8.87,12.5a17.73,17.73,0,0,0-2.9,5.68c-.33,1.34.16,2.57,2.15,2.27a12.6,12.6,0,0,0,5.21-2.25c3.13-2.14,6.16-4.42,9.24-6.63Z"/>
  <path d="M152,86.18c-1.38-.35-2.76-.62-4.08-1a12.78,12.78,0,0,1-6.56-4.26c-2.4-3.16-2.38-6.56-.59-10A15.06,15.06,0,0,1,146.94,65a24.31,24.31,0,0,1,10.45-3,32.26,32.26,0,0,1,11.66,1.35c.39.12.77.3,1.23.47a5.14,5.14,0,0,1-.53.85.72.72,0,0,1-.59.21,28.14,28.14,0,0,0-9.85-1.06A23.15,23.15,0,0,0,145.17,69a9.31,9.31,0,0,0-2.91,3.72c-1.42,3.75-.53,7,3,9.27A20.13,20.13,0,0,0,152,84.41c1.12.25,1.65-.3,2.3-1a61.44,61.44,0,0,1,4.39-4.4c2.32-2,4.7-4,7.17-5.82a59.4,59.4,0,0,1,5.49-3.46,49.6,49.6,0,0,1,12.9-5.53,18,18,0,0,1,7.73-.52c2.88.53,4.7,2.74,3.72,5.94A11.45,11.45,0,0,1,193,74a33.39,33.39,0,0,1-9.76,6.84,46.32,46.32,0,0,1-9.53,3.64,91.19,91.19,0,0,1-9.06,1.74c-2.23.32-4.5.3-6.75.47a1.32,1.32,0,0,0-.83.37,35.77,35.77,0,0,0-5.72,8,12.14,12.14,0,0,0-1.14,3.66c-.28,2.25,1.22,4,3.6,4.56a13.75,13.75,0,0,0,7.38-.49c5.42-1.77,10.15-4.82,14.79-8,1.89-1.31,3.74-2.67,5.6-4l1.12,1.08c-3,2.64-5,5.92-6.93,9.27a80.38,80.38,0,0,1-4.8,7.56,27.71,27.71,0,0,1-8.8,7.45,39.29,39.29,0,0,1-6.39,2.92,35,35,0,0,1-8.76,1.81,30.05,30.05,0,0,1-3.23.2,22.4,22.4,0,0,1-8-1.27c-2-.8-3.7-1.94-4.23-4.21a4.37,4.37,0,0,1,.42-3.42c1.22-1.95,2.72-3.49,5.28-3.43a2.23,2.23,0,0,1,2.14,1.37,2.41,2.41,0,0,1-2.76,3.43c-.27-.06-.53-.15-.8-.23-.66-.2-1.32-.33-1.85.28a2.08,2.08,0,0,0-.32,2,3.54,3.54,0,0,0,2,2.21,14,14,0,0,0,5.44,1.38,30.16,30.16,0,0,0,8.76-.69,26.51,26.51,0,0,0,11.59-5.83,57.27,57.27,0,0,0,9.67-11.15,14.72,14.72,0,0,0,1.43-2.48c-1.17.71-2.34,1.43-3.52,2.11a31.56,31.56,0,0,1-8.12,3.56,14.79,14.79,0,0,1-8.89-.09,6.85,6.85,0,0,1-4.54-6.48,15.53,15.53,0,0,1,2-7.6C150.27,89.11,151.12,87.66,152,86.18Zm7.28-1.52.07.2c2.59-.26,5.2-.41,7.77-.81a51.28,51.28,0,0,0,14.35-4.26c3.84-1.83,7.54-3.88,10.37-7.15a6.59,6.59,0,0,0,1.82-5.12,2.15,2.15,0,0,0-1.51-2,6,6,0,0,0-1.48-.3,18.64,18.64,0,0,0-7.82,1.41,47,47,0,0,0-11.57,6.82,95.65,95.65,0,0,0-10.65,9.72C160.12,83.63,159.69,84.15,159.24,84.66Z"/>
  <a xmlns="http://www.w3.org/2000/svg" id="svg-mgstudio-anchor" xlink:href="https://mg-studio.sk/" xmlns:xlink="http://www.w3.org/1999/xlink" target="_blank">
    <rect x="0" y="0" width="100%" height="100%" fill-opacity="0"/>
  </a>
</svg>